<svg width="85" height="25" viewBox="0 0 85 25" fill="none" xmlns="http://www.w3.org/2000/svg">
<path d="M12.128 24.48C14.432 24.48 16.416 23.9787 18.08 22.976C19.7547 21.9733 21.04 20.5707 21.936 18.768C22.8427 16.9653 23.296 14.8693 23.296 12.48C23.296 10.0907 22.8427 7.99467 21.936 6.192C21.04 4.38933 19.7547 2.98667 18.08 1.984C16.416 0.981333 14.432 0.48 12.128 0.48C9.824 0.48 7.83467 0.981333 6.16 1.984C4.496 2.98667 3.21067 4.38933 2.304 6.192C1.408 7.99467 0.96 10.0907 0.96 12.48C0.96 14.8693 1.408 16.9653 2.304 18.768C3.21067 20.5707 4.496 21.9733 6.16 22.976C7.83467 23.9787 9.824 24.48 12.128 24.48ZM12.128 20.384C9.94133 20.352 8.29867 19.6267 7.2 18.208C6.112 16.7893 5.568 14.88 5.568 12.48C5.568 10.08 6.112 8.15467 7.2 6.704C8.29867 5.25333 9.94133 4.544 12.128 4.576C14.3253 4.608 15.968 5.33333 17.056 6.752C18.144 8.17067 18.688 10.08 18.688 12.48C18.688 14.88 18.144 16.8053 17.056 18.256C15.968 19.7067 14.3253 20.416 12.128 20.384ZM27.93 24H32.282V10.08H36.282V6.72H32.282V5.76C32.282 5.28 32.4473 4.86933 32.778 4.528C33.1087 4.176 33.6153 4 34.298 4H36.282V0.48H34.138C33.722 0.48 33.2207 0.490666 32.634 0.511999C32.0473 0.522665 31.4393 0.639998 30.81 0.863998C30.1913 1.07733 29.6153 1.48266 29.082 2.08C28.6767 2.528 28.394 3.02933 28.234 3.584C28.074 4.13867 27.9833 4.69333 27.962 5.248C27.9407 5.792 27.93 6.28267 27.93 6.72H25.21V10.08H27.93V24ZM39.002 24H43.354V10.08H47.354V6.72H43.354V5.76C43.354 5.28 43.5193 4.86933 43.85 4.528C44.1807 4.176 44.6873 4 45.37 4H47.354V0.48H45.21C44.794 0.48 44.2927 0.490666 43.706 0.511999C43.1193 0.522665 42.5113 0.639998 41.882 0.863998C41.2633 1.07733 40.6873 1.48266 40.154 2.08C39.7487 2.528 39.466 3.02933 39.306 3.584C39.146 4.13867 39.0553 4.69333 39.034 5.248C39.0127 5.792 39.002 6.28267 39.002 6.72H36.282V10.08H39.002V24ZM57.3345 24.48C58.9985 24.48 60.5292 24.0427 61.9265 23.168C63.3345 22.2933 64.3638 21.0667 65.0145 19.488L60.6625 18.24C60.0012 19.6907 58.8065 20.416 57.0785 20.416C55.8945 20.416 54.9612 20.0853 54.2785 19.424C53.6065 18.7627 53.1905 17.8133 53.0305 16.576H65.1585C65.3398 14.4853 65.1265 12.6667 64.5185 11.12C63.9105 9.57333 62.9718 8.37333 61.7025 7.52C60.4332 6.66667 58.8918 6.24 57.0785 6.24C55.3718 6.24 53.8625 6.62933 52.5505 7.408C51.2385 8.176 50.2092 9.25867 49.4625 10.656C48.7158 12.0533 48.3425 13.696 48.3425 15.584C48.3425 17.312 48.7212 18.848 49.4785 20.192C50.2465 21.5253 51.3025 22.576 52.6465 23.344C54.0012 24.1013 55.5638 24.48 57.3345 24.48ZM57.2705 10.016C58.3158 10.016 59.1158 10.2773 59.6705 10.8C60.2358 11.3227 60.5985 12.1707 60.7585 13.344H53.1425C53.6012 11.1253 54.9772 10.016 57.2705 10.016ZM68.7713 24H73.1553V15.168C73.1553 13.1627 73.9446 11.7973 75.5233 11.072C76.0353 10.8267 76.6059 10.6827 77.2353 10.64C77.8753 10.5867 78.4353 10.6347 78.9153 10.784V6.72C78.1366 6.624 77.3579 6.64533 76.5793 6.784C75.8006 6.912 75.0966 7.168 74.4673 7.552C74.0619 7.78667 73.7046 8.06933 73.3953 8.4C73.0966 8.73067 72.8353 9.09867 72.6113 9.504V6.72H68.7713V24ZM80.1003 24H84.4523V19.648H80.1003V24Z" fill="#111111"/>
</svg>
